<svg width="45.122002" height="45.122002" xmlns="http://www.w3.org/2000/svg">
 <metadata id="metadata2638">image/svg+xml08 12 2006molumengreen power buttoniconbuttondesignUIinterfacepowerswitchonoffgreenglossytoggle</metadata>
 <g>
  <g id="g3983" stroke="#000000">
   <path id="path3781-3" d="m24.1602,24.198l0.73014,-3.68999c0,0 -0.82768,-1.076 -2.26236,-1.076l-0.13288,0c-1.43468,0 -2.26236,1.076 -2.26236,1.076l0.62343,3.68999" stroke-miterlimit="4" stroke-linejoin="round" stroke-linecap="round" stroke-width="1.6678" stroke="#000000" fill="none"/>
   <path d="m17.3883,24.9503c-2.6311,-1.5721 -4.3729,-4.3085 -4.3729,-7.4212c0,-4.876 4.274,-8.82871 9.5462,-8.82871c5.272,0 9.546,3.95271 9.546,8.82871l0,0l0,0c0,3.1212 -1.7512,5.864 -4.3944,7.434l-0.0752,0.1181l0,3.8584c0,1.7316 -1.394,3.1256 -3.1255,3.1256l-3.9018,0c-1.7317,0 -3.1257,-1.394 -3.1257,-3.1256l0,-3.8584l-0.0967,-0.1309l0,0z" id="path3810" stroke-miterlimit="4" stroke-linejoin="round" stroke-linecap="round" stroke-width="2.085" stroke="#000000" fill="none"/>
   <path d="m26.58527,31.87186l0,3.23926c0,0.87521 -0.70461,1.5798 -1.57982,1.5798l-4.91997,0c-0.87521,0 -1.57979,-0.70459 -1.57979,-1.5798l0,-3.23926" id="path3858" stroke-dashoffset="10" stroke-miterlimit="4" stroke-linejoin="round" stroke-linecap="round" stroke-width="1.6678" stroke="#000000" fill="none"/>
  </g>
  <title>Layer 1</title>
 </g>
</svg>